<svg xmlns="http://www.w3.org/2000/svg" viewBox="0 0 64 64" width="64" height="64">
  <rect width="64" height="64" rx="14" fill="#0d0d0f"/>
  <g stroke="#7c5cff" stroke-width="2.2" stroke-linecap="round" opacity="0.9">
    <line x1="20" y1="22" x2="32" y2="16"/><line x1="32" y1="16" x2="44" y2="22"/>
    <line x1="20" y1="22" x2="20" y2="42"/><line x1="44" y1="22" x2="44" y2="42"/>
    <line x1="20" y1="42" x2="32" y2="48"/><line x1="32" y1="48" x2="44" y2="42"/>
    <line x1="32" y1="16" x2="32" y2="32"/><line x1="20" y1="42" x2="32" y2="32"/><line x1="44" y1="42" x2="32" y2="32"/>
  </g>
  <g fill="#b9a7ff"><circle cx="20" cy="22" r="4"/><circle cx="44" cy="22" r="4"/><circle cx="20" cy="42" r="4"/><circle cx="44" cy="42" r="4"/><circle cx="32" cy="16" r="4"/><circle cx="32" cy="48" r="4"/></g>
  <circle cx="32" cy="32" r="6" fill="#7c5cff"/>
</svg>
